<svg xmlns="http://www.w3.org/2000/svg" xmlns:xlink="http://www.w3.org/1999/xlink" width="3000" zoomAndPan="magnify" viewBox="0 0 2250 599.999999" height="800" preserveAspectRatio="xMidYMid meet" version="1.0"><defs><g/></defs><rect x="-225" width="2700" fill="#ffffff" y="-60" height="719.999999" fill-opacity="1"/><rect x="-225" width="2700" fill="#ffffff" y="-60" height="719.999999" fill-opacity="1"/><g fill="#057ec8" fill-opacity="1"><g transform="translate(13.584962, 478.174058)"><g><path d="M 157.34375 0 C 153.863281 0 151.78125 -1.734375 151.09375 -5.203125 L 126.609375 -154.734375 C 126.609375 -155.085938 126.429688 -155.523438 126.078125 -156.046875 C 125.734375 -156.566406 125.210938 -156.828125 124.515625 -156.828125 L 97.421875 -156.828125 C 95.691406 -156.828125 94.828125 -155.957031 94.828125 -154.21875 L 76.59375 -6.25 C 76.238281 -4.507812 75.453125 -3.03125 74.234375 -1.8125 C 73.023438 -0.601562 71.550781 0 69.8125 0 L 23.4375 0 C 19.625 0 17.71875 -2.082031 17.71875 -6.25 L 60.953125 -358.453125 C 61.304688 -360.179688 62.175781 -361.65625 63.5625 -362.875 C 64.945312 -364.09375 66.507812 -364.703125 68.25 -364.703125 L 163.078125 -364.703125 C 187.390625 -364.703125 206.578125 -356.625 220.640625 -340.46875 C 234.710938 -324.320312 241.75 -302.875 241.75 -276.125 C 241.75 -272.65625 241.398438 -266.753906 240.703125 -258.421875 C 237.921875 -236.878906 231.492188 -218.289062 221.421875 -202.65625 C 211.347656 -187.03125 198.671875 -175.222656 183.390625 -167.234375 C 182.003906 -166.890625 181.3125 -165.847656 181.3125 -164.109375 L 211.53125 -7.296875 L 211.53125 -5.203125 C 211.53125 -1.734375 209.617188 0 205.796875 0 Z M 116.703125 -312.59375 C 114.960938 -312.59375 114.09375 -311.726562 114.09375 -310 L 101.078125 -206.3125 C 101.078125 -204.582031 101.769531 -203.71875 103.15625 -203.71875 L 134.421875 -203.71875 C 147.960938 -203.71875 159.332031 -209.707031 168.53125 -221.6875 C 177.738281 -233.664062 182.34375 -249.554688 182.34375 -269.359375 C 182.34375 -282.898438 179.21875 -293.488281 172.96875 -301.125 C 166.71875 -308.769531 158.207031 -312.59375 147.4375 -312.59375 Z M 116.703125 -312.59375 "/></g></g></g><g fill="#057ec8" fill-opacity="1"><g transform="translate(246.990314, 478.174058)"><g><path d="M 107.328125 4.171875 C 80.929688 4.171875 60.085938 -3.296875 44.796875 -18.234375 C 29.515625 -33.171875 21.875 -53.488281 21.875 -79.1875 C 21.875 -81.96875 22.222656 -87.179688 22.921875 -94.828125 L 44.28125 -269.875 C 47.757812 -299.75 59.484375 -323.71875 79.453125 -341.78125 C 99.421875 -359.84375 123.992188 -368.875 153.171875 -368.875 C 179.566406 -368.875 200.40625 -361.488281 215.6875 -346.71875 C 230.976562 -331.957031 238.625 -311.898438 238.625 -286.546875 C 238.625 -283.078125 238.273438 -277.519531 237.578125 -269.875 L 216.21875 -94.828125 C 212.738281 -64.953125 201.015625 -40.984375 181.046875 -22.921875 C 161.078125 -4.859375 136.503906 4.171875 107.328125 4.171875 Z M 113.578125 -47.9375 C 125.035156 -47.9375 134.757812 -52.015625 142.75 -60.171875 C 150.738281 -68.335938 155.601562 -79.019531 157.34375 -92.21875 L 179.75 -272.484375 C 180.09375 -274.222656 180.265625 -276.65625 180.265625 -279.78125 C 180.265625 -291.238281 177.222656 -300.265625 171.140625 -306.859375 C 165.066406 -313.460938 156.820312 -316.765625 146.40625 -316.765625 C 134.9375 -316.765625 125.296875 -312.679688 117.484375 -304.515625 C 109.671875 -296.359375 104.894531 -285.679688 103.15625 -272.484375 L 81.28125 -92.21875 C 80.925781 -90.132812 80.75 -87.179688 80.75 -83.359375 C 80.75 -72.585938 83.613281 -63.988281 89.34375 -57.5625 C 95.082031 -51.144531 103.160156 -47.9375 113.578125 -47.9375 Z M 113.578125 -47.9375 "/></g></g></g><g fill="#057ec8" fill-opacity="1"><g transform="translate(483.000574, 478.174058)"><g><path d="M 23.4375 0 C 19.625 0 17.71875 -2.082031 17.71875 -6.25 L 60.953125 -358.453125 C 61.304688 -360.179688 62.175781 -361.65625 63.5625 -362.875 C 64.945312 -364.09375 66.507812 -364.703125 68.25 -364.703125 L 114.625 -364.703125 C 116.351562 -364.703125 117.738281 -364.09375 118.78125 -362.875 C 119.820312 -361.65625 120.171875 -360.179688 119.828125 -358.453125 L 82.3125 -54.703125 C 82.3125 -52.960938 83.179688 -52.09375 84.921875 -52.09375 L 193.8125 -52.09375 C 195.550781 -52.09375 196.941406 -51.484375 197.984375 -50.265625 C 199.023438 -49.054688 199.367188 -47.582031 199.015625 -45.84375 L 194.328125 -6.25 C 193.984375 -4.507812 193.203125 -3.03125 191.984375 -1.8125 C 190.773438 -0.601562 189.300781 0 187.5625 0 Z M 23.4375 0 "/></g></g></g><g fill="#057ec8" fill-opacity="1"><g transform="translate(692.961243, 478.174058)"><g><path d="M 23.4375 0 C 19.625 0 17.71875 -2.082031 17.71875 -6.25 L 60.953125 -358.453125 C 61.304688 -360.179688 62.175781 -361.65625 63.5625 -362.875 C 64.945312 -364.09375 66.507812 -364.703125 68.25 -364.703125 L 114.625 -364.703125 C 116.351562 -364.703125 117.738281 -364.09375 118.78125 -362.875 C 119.820312 -361.65625 120.171875 -360.179688 119.828125 -358.453125 L 82.3125 -54.703125 C 82.3125 -52.960938 83.179688 -52.09375 84.921875 -52.09375 L 193.8125 -52.09375 C 195.550781 -52.09375 196.941406 -51.484375 197.984375 -50.265625 C 199.023438 -49.054688 199.367188 -47.582031 199.015625 -45.84375 L 194.328125 -6.25 C 193.984375 -4.507812 193.203125 -3.03125 191.984375 -1.8125 C 190.773438 -0.601562 189.300781 0 187.5625 0 Z M 23.4375 0 "/></g></g></g><g fill="#057ec8" fill-opacity="1"><g transform="translate(902.921866, 478.174058)"><g><path d="M 232.890625 -318.859375 C 232.535156 -317.117188 231.75 -315.640625 230.53125 -314.421875 C 229.320312 -313.203125 227.847656 -312.59375 226.109375 -312.59375 L 116.703125 -312.59375 C 114.960938 -312.59375 114.09375 -311.726562 114.09375 -310 L 101.59375 -211.53125 C 101.59375 -209.789062 102.460938 -208.921875 104.203125 -208.921875 L 168.796875 -208.921875 C 170.535156 -208.921875 171.925781 -208.3125 172.96875 -207.09375 C 174.007812 -205.882812 174.359375 -204.410156 174.015625 -202.671875 L 168.796875 -162.546875 C 168.796875 -160.816406 168.101562 -159.34375 166.71875 -158.125 C 165.332031 -156.90625 163.769531 -156.296875 162.03125 -156.296875 L 97.421875 -156.296875 C 95.691406 -156.296875 94.828125 -155.425781 94.828125 -153.6875 L 82.3125 -54.703125 C 82.3125 -52.960938 83.179688 -52.09375 84.921875 -52.09375 L 193.8125 -52.09375 C 195.550781 -52.09375 196.941406 -51.484375 197.984375 -50.265625 C 199.023438 -49.054688 199.367188 -47.582031 199.015625 -45.84375 L 194.328125 -6.25 C 193.984375 -4.507812 193.203125 -3.03125 191.984375 -1.8125 C 190.773438 -0.601562 189.300781 0 187.5625 0 L 23.4375 0 C 19.625 0 17.71875 -2.082031 17.71875 -6.25 L 60.953125 -358.453125 C 61.304688 -360.179688 62.175781 -361.65625 63.5625 -362.875 C 64.945312 -364.09375 66.507812 -364.703125 68.25 -364.703125 L 232.359375 -364.703125 C 234.097656 -364.703125 235.488281 -364.09375 236.53125 -362.875 C 237.570312 -361.65625 237.921875 -360.179688 237.578125 -358.453125 Z M 232.890625 -318.859375 "/></g></g></g><g fill="#057ec8" fill-opacity="1"><g transform="translate(1122.781357, 478.174058)"><g><path d="M 157.34375 0 C 153.863281 0 151.78125 -1.734375 151.09375 -5.203125 L 126.609375 -154.734375 C 126.609375 -155.085938 126.429688 -155.523438 126.078125 -156.046875 C 125.734375 -156.566406 125.210938 -156.828125 124.515625 -156.828125 L 97.421875 -156.828125 C 95.691406 -156.828125 94.828125 -155.957031 94.828125 -154.21875 L 76.59375 -6.25 C 76.238281 -4.507812 75.453125 -3.03125 74.234375 -1.8125 C 73.023438 -0.601562 71.550781 0 69.8125 0 L 23.4375 0 C 19.625 0 17.71875 -2.082031 17.71875 -6.25 L 60.953125 -358.453125 C 61.304688 -360.179688 62.175781 -361.65625 63.5625 -362.875 C 64.945312 -364.09375 66.507812 -364.703125 68.25 -364.703125 L 163.078125 -364.703125 C 187.390625 -364.703125 206.578125 -356.625 220.640625 -340.46875 C 234.710938 -324.320312 241.75 -302.875 241.75 -276.125 C 241.75 -272.65625 241.398438 -266.753906 240.703125 -258.421875 C 237.921875 -236.878906 231.492188 -218.289062 221.421875 -202.65625 C 211.347656 -187.03125 198.671875 -175.222656 183.390625 -167.234375 C 182.003906 -166.890625 181.3125 -165.847656 181.3125 -164.109375 L 211.53125 -7.296875 L 211.53125 -5.203125 C 211.53125 -1.734375 209.617188 0 205.796875 0 Z M 116.703125 -312.59375 C 114.960938 -312.59375 114.09375 -311.726562 114.09375 -310 L 101.078125 -206.3125 C 101.078125 -204.582031 101.769531 -203.71875 103.15625 -203.71875 L 134.421875 -203.71875 C 147.960938 -203.71875 159.332031 -209.707031 168.53125 -221.6875 C 177.738281 -233.664062 182.34375 -249.554688 182.34375 -269.359375 C 182.34375 -282.898438 179.21875 -293.488281 172.96875 -301.125 C 166.71875 -308.769531 158.207031 -312.59375 147.4375 -312.59375 Z M 116.703125 -312.59375 "/></g></g></g><g fill="#057ec8" fill-opacity="1"><g transform="translate(1358.270637, 478.174058)"><g><path d="M 100.03125 4.171875 C 74.675781 4.171875 54.53125 -3.117188 39.59375 -17.703125 C 24.65625 -32.296875 17.1875 -51.578125 17.1875 -75.546875 C 17.1875 -79.015625 17.535156 -83.878906 18.234375 -90.140625 L 19.796875 -103.671875 C 20.140625 -105.410156 20.921875 -106.890625 22.140625 -108.109375 C 23.359375 -109.328125 24.835938 -109.9375 26.578125 -109.9375 L 72.421875 -109.9375 C 76.242188 -109.9375 78.15625 -107.847656 78.15625 -103.671875 L 76.59375 -93.265625 C 76.238281 -91.523438 76.0625 -88.742188 76.0625 -84.921875 C 76.0625 -73.460938 78.835938 -64.429688 84.390625 -57.828125 C 89.953125 -51.234375 97.25 -47.9375 106.28125 -47.9375 C 117.75 -47.9375 127.5625 -52.625 135.71875 -62 C 143.882812 -71.375 147.96875 -83.359375 147.96875 -97.953125 C 147.96875 -108.367188 144.753906 -117.394531 138.328125 -125.03125 C 131.898438 -132.675781 119.828125 -143.796875 102.109375 -158.390625 C 88.222656 -169.847656 77.023438 -179.914062 68.515625 -188.59375 C 60.003906 -197.28125 52.878906 -207.53125 47.140625 -219.34375 C 41.410156 -231.15625 38.546875 -244.703125 38.546875 -259.984375 C 38.546875 -262.753906 38.894531 -267.613281 39.59375 -274.5625 C 43.070312 -303.394531 54.359375 -326.320312 73.453125 -343.34375 C 92.554688 -360.363281 115.832031 -368.875 143.28125 -368.875 C 168.632812 -368.875 188.691406 -361.488281 203.453125 -346.71875 C 218.210938 -331.957031 225.59375 -312.078125 225.59375 -287.078125 C 225.59375 -283.941406 225.242188 -278.554688 224.546875 -270.921875 L 223.515625 -258.421875 C 223.160156 -256.679688 222.285156 -255.203125 220.890625 -253.984375 C 219.503906 -252.765625 217.945312 -252.15625 216.21875 -252.15625 L 170.890625 -252.15625 C 169.148438 -252.15625 167.757812 -252.765625 166.71875 -253.984375 C 165.675781 -255.203125 165.328125 -256.679688 165.671875 -258.421875 L 167.234375 -271.96875 C 167.585938 -274.050781 167.765625 -277 167.765625 -280.8125 C 167.765625 -291.925781 164.984375 -300.695312 159.421875 -307.125 C 153.867188 -313.550781 146.398438 -316.765625 137.015625 -316.765625 C 125.898438 -316.765625 116.4375 -312.335938 108.625 -303.484375 C 100.8125 -294.628906 96.90625 -282.554688 96.90625 -267.265625 C 96.90625 -257.191406 100.03125 -248.070312 106.28125 -239.90625 C 112.53125 -231.75 123.820312 -220.726562 140.15625 -206.84375 C 156.820312 -192.945312 169.671875 -181.484375 178.703125 -172.453125 C 187.734375 -163.421875 194.679688 -153.78125 199.546875 -143.53125 C 204.410156 -133.289062 206.84375 -121.742188 206.84375 -108.890625 C 206.84375 -105.765625 206.492188 -100.726562 205.796875 -93.78125 C 201.972656 -63.90625 190.335938 -40.109375 170.890625 -22.390625 C 151.441406 -4.679688 127.820312 4.171875 100.03125 4.171875 Z M 100.03125 4.171875 "/></g></g></g><g fill="#057ec8" fill-opacity="1"><g transform="translate(1572.920222, 478.174058)"><g><path d="M 243.3125 -364.703125 C 245.039062 -364.703125 246.425781 -364.09375 247.46875 -362.875 C 248.507812 -361.65625 248.859375 -360.179688 248.515625 -358.453125 L 243.828125 -318.859375 C 243.484375 -317.117188 242.703125 -315.640625 241.484375 -314.421875 C 240.265625 -313.203125 238.789062 -312.59375 237.0625 -312.59375 L 172.96875 -312.59375 C 171.582031 -312.59375 170.539062 -311.726562 169.84375 -310 L 132.859375 -6.25 C 132.503906 -4.507812 131.71875 -3.03125 130.5 -1.8125 C 129.289062 -0.601562 127.816406 0 126.078125 0 L 79.1875 0 C 77.457031 0 76.070312 -0.601562 75.03125 -1.8125 C 73.988281 -3.03125 73.640625 -4.507812 73.984375 -6.25 L 111.5 -310 C 111.5 -311.726562 110.628906 -312.59375 108.890625 -312.59375 L 48.453125 -312.59375 C 46.710938 -312.59375 45.320312 -313.203125 44.28125 -314.421875 C 43.238281 -315.640625 42.894531 -317.117188 43.25 -318.859375 L 47.9375 -358.453125 C 48.28125 -360.179688 49.054688 -361.65625 50.265625 -362.875 C 51.484375 -364.09375 52.960938 -364.703125 54.703125 -364.703125 Z M 243.3125 -364.703125 "/></g></g></g><g fill="#057ec8" fill-opacity="1"><g transform="translate(1776.628891, 478.174058)"><g><path d="M 160.46875 0 C 156.644531 0 154.734375 -1.910156 154.734375 -5.734375 L 152.125 -60.4375 C 152.125 -62.175781 151.082031 -63.046875 149 -63.046875 L 75.546875 -63.046875 C 73.804688 -63.046875 72.585938 -62.175781 71.890625 -60.4375 L 55.75 -5.734375 C 54.707031 -1.910156 52.273438 0 48.453125 0 L 2.609375 0 C -1.910156 0 -3.472656 -2.253906 -2.078125 -6.765625 L 115.65625 -358.96875 C 116.695312 -362.789062 119.128906 -364.703125 122.953125 -364.703125 L 176.625 -364.703125 C 180.4375 -364.703125 182.34375 -362.789062 182.34375 -358.96875 L 214.125 -6.765625 L 214.125 -5.734375 C 214.125 -1.910156 212.039062 0 207.875 0 Z M 87.53125 -113.0625 C 87.175781 -111.320312 88.046875 -110.453125 90.140625 -110.453125 L 145.875 -110.453125 C 147.957031 -110.453125 149 -111.320312 149 -113.0625 L 139.625 -277.6875 C 139.625 -278.726562 139.273438 -279.25 138.578125 -279.25 C 137.890625 -279.25 137.195312 -278.726562 136.5 -277.6875 Z M 87.53125 -113.0625 "/></g></g></g><g fill="#057ec8" fill-opacity="1"><g transform="translate(1976.690468, 478.174058)"><g><path d="M 243.3125 -364.703125 C 245.039062 -364.703125 246.425781 -364.09375 247.46875 -362.875 C 248.507812 -361.65625 248.859375 -360.179688 248.515625 -358.453125 L 243.828125 -318.859375 C 243.484375 -317.117188 242.703125 -315.640625 241.484375 -314.421875 C 240.265625 -313.203125 238.789062 -312.59375 237.0625 -312.59375 L 172.96875 -312.59375 C 171.582031 -312.59375 170.539062 -311.726562 169.84375 -310 L 132.859375 -6.25 C 132.503906 -4.507812 131.71875 -3.03125 130.5 -1.8125 C 129.289062 -0.601562 127.816406 0 126.078125 0 L 79.1875 0 C 77.457031 0 76.070312 -0.601562 75.03125 -1.8125 C 73.988281 -3.03125 73.640625 -4.507812 73.984375 -6.25 L 111.5 -310 C 111.5 -311.726562 110.628906 -312.59375 108.890625 -312.59375 L 48.453125 -312.59375 C 46.710938 -312.59375 45.320312 -313.203125 44.28125 -314.421875 C 43.238281 -315.640625 42.894531 -317.117188 43.25 -318.859375 L 47.9375 -358.453125 C 48.28125 -360.179688 49.054688 -361.65625 50.265625 -362.875 C 51.484375 -364.09375 52.960938 -364.703125 54.703125 -364.703125 Z M 243.3125 -364.703125 "/></g></g></g></svg>